<svg xmlns="http://www.w3.org/2000/svg" xmlns:xlink="http://www.w3.org/1999/xlink" class="svg-icon icon-airplay" width="24" height="24" viewBox="0 0 24 24" fill="currentColor">
    <path d="M 12.5625 14.1328 q -0.0937 -0.1172 -0.2461 -0.1875 t -0.3164 -0.0703 t -0.3164 0.0703 t -0.2461 0.1875 l -4.5 5.25 q -0.0937 0.0938 -0.1406 0.2227 t -0.0469 0.2695 q 0 0.3047 0.2227 0.5273 t 0.5273 0.2227 h 9 q 0.3047 0 0.5273 -0.2227 t 0.2227 -0.5273 q 0 -0.1406 -0.0469 -0.2695 t -0.1406 -0.2227 z m -3.4219 4.9922 l 2.8594 -3.3516 l 2.8594 3.3516 h -5.7188 z m 12.6094 -13.5 v 10.5 q 0 0.9375 -0.6562 1.5938 t -1.5938 0.6562 h -0.75 q -0.3047 0 -0.5273 -0.2227 t -0.2227 -0.5273 t 0.2227 -0.5273 t 0.5273 -0.2227 h 0.75 q 0.3047 0 0.5273 -0.2227 t 0.2227 -0.5273 v -10.5 q 0 -0.3047 -0.2227 -0.5273 t -0.5273 -0.2227 h -15 q -0.3047 0 -0.5273 0.2227 t -0.2227 0.5273 v 10.5 q 0 0.3047 0.2227 0.5273 t 0.5273 0.2227 h 0.75 q 0.3047 0 0.5273 0.2227 t 0.2227 0.5273 t -0.2227 0.5273 t -0.5273 0.2227 h -0.75 q -0.9375 0 -1.5937 -0.6562 t -0.6563 -1.5938 v -10.5 q 0 -0.9375 0.6563 -1.5937 t 1.5937 -0.6563 h 15 q 0.9375 0 1.5938 0.6563 t 0.6562 1.5937 z" />
</svg>