<svg xmlns="http://www.w3.org/2000/svg" xmlns:xlink="http://www.w3.org/1999/xlink" class="svg-icon icon-airplane" width="24" height="24" viewBox="0 0 24 24" fill="currentColor">
    <path d="M 22.0781 12.0703 l -7.0781 -3.5391 v -4.0313 q 0 -1.2422 -0.8789 -2.1211 t -2.1211 -0.8789 t -2.1211 0.8789 t -0.8789 2.1211 v 4.0313 l -7.0781 3.5391 q -0.1875 0.0938 -0.3047 0.2813 t -0.1172 0.3984 v 3 q 0 0.3047 0.2227 0.5273 t 0.5273 0.2227 h 0.082 t 0.0586 -0.0234 l 6.6094 -1.3125 v 1.7813 l -1.2891 1.2656 q -0.0938 0.1172 -0.1523 0.2461 t -0.0586 0.293 v 3 q 0 0.3047 0.2227 0.5273 t 0.5273 0.2227 q 0.0703 0 0.1406 -0.0117 t 0.1406 -0.0352 l 3.4688 -1.4063 l 3.4688 1.4063 q 0.0703 0.0234 0.1406 0.0352 t 0.1406 0.0117 q 0.3047 0 0.5273 -0.2227 t 0.2227 -0.5273 v -3 q 0 -0.1641 -0.0586 -0.293 t -0.1523 -0.2461 l -1.2891 -1.2656 v -1.7813 l 6.6094 1.3125 q 0.0234 0.0234 0.0586 0.0234 h 0.082 q 0.3047 0 0.5273 -0.2227 t 0.2227 -0.5273 v -3 q 0 -0.2109 -0.1172 -0.3984 t -0.2813 -0.2813 h -0.0234 z m -1.0781 2.7656 l -6.6094 -1.3125 q -0.0234 -0.0234 -0.0586 -0.0234 h -0.082 q -0.3047 0 -0.5273 0.2227 t -0.2227 0.5273 v 3 q 0 0.1641 0.0586 0.293 t 0.1523 0.2461 l 1.2891 1.2656 v 1.5938 l -2.7188 -1.1016 q -0.0703 -0.0234 -0.1406 -0.0352 t -0.1406 -0.0117 t -0.1406 0.0117 t -0.1406 0.0352 l -2.7188 1.1016 v -1.5938 l 1.2891 -1.2656 q 0.0938 -0.1172 0.1523 -0.2461 t 0.0586 -0.293 v -3 q 0 -0.3047 -0.2227 -0.5273 t -0.5273 -0.2227 h -0.082 t -0.0586 0.0234 l -6.6094 1.3125 v -1.6172 l 7.0781 -3.5391 q 0.1875 -0.0938 0.3047 -0.2813 t 0.1172 -0.3984 v -4.5 q 0 -0.6328 0.4336 -1.0664 t 1.0664 -0.4336 t 1.0664 0.4336 t 0.4336 1.0664 v 4.5 q 0 0.2109 0.1172 0.3984 t 0.2813 0.2813 h 0.0234 l 7.0781 3.5391 v 1.6172 z" />
</svg>