<svg xmlns="http://www.w3.org/2000/svg" xmlns:xlink="http://www.w3.org/1999/xlink" class="svg-icon icon-alarm" width="24" height="24" viewBox="0 0 24 24" fill="currentColor">
    <path d="M 12 3.75 q -1.875 0 -3.4922 0.7031 q -1.6406 0.7031 -2.8711 1.9336 t -1.9336 2.8711 q -0.7031 1.6172 -0.7031 3.4922 t 0.7031 3.4922 q 0.7031 1.6406 1.9336 2.8711 t 2.8711 1.9336 q 1.6172 0.7031 3.4922 0.7031 t 3.4922 -0.7031 q 1.6406 -0.7031 2.8711 -1.9336 t 1.9336 -2.8711 q 0.7031 -1.6172 0.7031 -3.4922 q 0 -1.8516 -0.7031 -3.4922 t -1.9336 -2.8711 t -2.8711 -1.9336 q -1.6172 -0.7031 -3.4922 -0.7031 z m 0 16.5 q -1.5469 0 -2.9297 -0.5859 q -1.3594 -0.5859 -2.3789 -1.6055 t -1.6055 -2.3789 q -0.5859 -1.3828 -0.5859 -2.9297 t 0.5859 -2.9297 q 0.5859 -1.3594 1.6055 -2.3789 t 2.3789 -1.6055 q 1.3828 -0.5859 2.9297 -0.5859 t 2.9297 0.5859 q 1.3594 0.5859 2.3789 1.6055 t 1.6055 2.3789 q 0.5859 1.3828 0.5859 2.9297 t -0.5859 2.9063 q -0.5859 1.3828 -1.6055 2.4023 t -2.3789 1.6055 q -1.3828 0.5859 -2.9297 0.5859 z m -6.2109 -16.7109 l -3 3 q -0.1172 0.0938 -0.2461 0.1523 t -0.293 0.0586 q -0.3047 0 -0.5273 -0.2227 t -0.2227 -0.5273 q 0 -0.1641 0.0586 -0.293 t 0.1523 -0.2461 l 3 -3 q 0.1172 -0.0938 0.2461 -0.1523 t 0.293 -0.0586 q 0.3047 0 0.5273 0.2227 t 0.2227 0.5273 q 0 0.1641 -0.0586 0.293 t -0.1523 0.2461 z m 16.5 3 q -0.1172 0.0938 -0.2461 0.1523 t -0.293 0.0586 t -0.293 -0.0586 t -0.2461 -0.1523 l -3 -3 q -0.0938 -0.1172 -0.1523 -0.2461 t -0.0586 -0.293 q 0 -0.3047 0.2227 -0.5273 t 0.5273 -0.2227 q 0.1641 0 0.293 0.0586 t 0.2461 0.1523 l 3 3 q 0.0938 0.1172 0.1523 0.2461 t 0.0586 0.293 t -0.0586 0.293 t -0.1523 0.2461 z m -5.0391 5.4609 q 0.3047 0 0.5273 0.2227 t 0.2227 0.5273 t -0.2227 0.5273 t -0.5273 0.2227 h -5.25 q -0.3047 0 -0.5273 -0.2227 t -0.2227 -0.5273 v -5.25 q 0 -0.3047 0.2227 -0.5273 t 0.5273 -0.2227 t 0.5273 0.2227 t 0.2227 0.5273 v 4.5 h 4.5 z" />
</svg>