<svg xmlns="http://www.w3.org/2000/svg" xmlns:xlink="http://www.w3.org/1999/xlink" class="svg-icon icon-android-logo" width="24" height="24" viewBox="0 0 24 24" fill="currentColor">
    <path d="M 16.5 14.625 q 0 0.4688 -0.3281 0.7969 t -0.7969 0.3281 t -0.7969 -0.3281 t -0.3281 -0.7969 t 0.3281 -0.7969 t 0.7969 -0.3281 t 0.7969 0.3281 t 0.3281 0.7969 z m -7.875 -1.125 q -0.4688 0 -0.7969 0.3281 t -0.3281 0.7969 t 0.3281 0.7969 t 0.7969 0.3281 t 0.7969 -0.3281 t 0.3281 -0.7969 t -0.3281 -0.7969 t -0.7969 -0.3281 z m 13.875 2.25 v 2.25 q 0 0.6328 -0.4336 1.0664 t -1.0664 0.4336 h -18 q -0.6328 0 -1.0664 -0.4336 t -0.4336 -1.0664 v -2.1328 v -0.0234 q 0 -1.125 0.2344 -2.2031 t 0.6563 -2.0625 t 1.0547 -1.8516 q 0.6094 -0.8672 1.3594 -1.5938 h 0.0234 l -2.3672 -2.3438 q -0.0938 -0.1172 -0.1523 -0.2461 t -0.0586 -0.293 q 0 -0.3047 0.2227 -0.5273 t 0.5273 -0.2227 q 0.1641 0 0.293 0.0586 t 0.2461 0.1523 l 2.4375 2.4609 q 1.2656 -0.8906 2.8008 -1.4063 t 3.2461 -0.5156 q 1.6875 0 3.2227 0.5039 t 2.8242 1.418 l -0.0469 -0.0234 l 2.4375 -2.4375 q 0.1172 -0.0938 0.2461 -0.1523 t 0.293 -0.0586 q 0.3047 0 0.5273 0.2227 t 0.2227 0.5273 q 0 0.1641 -0.0586 0.293 t -0.1523 0.2461 l -2.3438 2.3203 q 0.0703 0.0469 0.1172 0.0938 t 0.0938 0.1172 q 0.7266 0.7031 1.2891 1.5469 q 0.5859 0.8438 0.9844 1.7813 t 0.6094 1.9688 q 0.2109 1.0078 0.2109 2.1094 v 0.0117 v 0.0117 z m -1.5 0 q 0 -1.875 -0.7031 -3.4922 q -0.7031 -1.6406 -1.9336 -2.8711 t -2.8711 -1.9336 q -1.6172 -0.7031 -3.4922 -0.7031 h -0.0234 q -1.8516 0 -3.4922 0.7266 t -2.8594 1.957 t -1.9219 2.8945 q -0.7031 1.6406 -0.7031 3.5391 v 2.1328 h 18 v -2.25 z" />
</svg>