<svg xmlns="http://www.w3.org/2000/svg" xmlns:xlink="http://www.w3.org/1999/xlink" class="svg-icon icon-aperture" width="24" height="24" viewBox="0 0 24 24" fill="currentColor">
    <path d="M 19.3828 15.6563 l -0.0234 0.0469 q 0.4219 -0.8203 0.6563 -1.7578 t 0.2344 -1.9453 q 0 -0.8438 -0.1641 -1.6406 t -0.4688 -1.5 l -5.0391 5.9297 z m -1.5469 2.1797 q 0.1875 -0.1875 0.3633 -0.3867 t 0.3398 -0.4102 l -7.6641 -1.4063 l 1.6406 4.5938 h 0.0234 q 1.5469 -0.0938 2.9063 -0.7266 t 2.3906 -1.6641 z m -11.6719 0 q 0.9375 0.9375 2.1445 1.5469 t 2.5898 0.7969 l -2.6016 -7.3359 l -3.1641 3.7266 l 0.0234 0.0234 q 0.2109 0.3281 0.4688 0.6445 t 0.5391 0.5977 z m 3.2578 -8.625 l -4.8047 -0.8672 l 0.0234 -0.0469 q -0.4219 0.8203 -0.6563 1.7578 t -0.2344 1.9453 q 0 0.8438 0.1641 1.6406 t 0.4688 1.5 z m -3.2578 -3.0469 q -0.1875 0.1875 -0.3633 0.3867 t -0.3398 0.4102 l 7.6641 1.4063 l -1.6406 -4.5938 h -0.0234 q -1.5469 0.0938 -2.9063 0.7266 t -2.3906 1.6641 z m 7.5469 3.8438 l -2.6016 -0.4688 l -1.6875 1.9922 l 0.8672 2.4609 l 2.6016 0.4688 l 1.6875 -1.9922 z m 4.125 -3.8438 q -0.9375 -0.9375 -2.1445 -1.5469 t -2.5898 -0.7969 l 2.6016 7.3359 l 3.1641 -3.7266 l -0.0234 -0.0234 q -0.2109 -0.3281 -0.4688 -0.6445 t -0.5391 -0.5977 z m 1.0547 -1.0547 q 0.6563 0.6563 1.1953 1.4297 q 0.5391 0.7969 0.9023 1.6641 t 0.5742 1.8281 q 0.1875 0.9609 0.1875 1.9688 q 0 2.0156 -0.7734 3.7969 q -0.75 1.7813 -2.0742 3.1055 t -3.1055 2.0742 q -1.7813 0.7734 -3.7969 0.7734 q -1.0078 0 -1.9688 -0.1875 q -0.9609 -0.2109 -1.8281 -0.5742 t -1.6641 -0.9023 q -0.7734 -0.5391 -1.4297 -1.1953 t -1.1953 -1.4297 q -0.5391 -0.7969 -0.9023 -1.6641 t -0.5742 -1.8281 q -0.1875 -0.9609 -0.1875 -1.9688 q 0 -2.0156 0.7734 -3.7969 q 0.75 -1.7813 2.0742 -3.1055 t 3.1055 -2.0742 q 1.7813 -0.7734 3.7969 -0.7734 q 1.0078 0 1.9688 0.1875 q 0.9609 0.2109 1.8281 0.5742 t 1.6641 0.9023 q 0.7734 0.5391 1.4297 1.1953 z" />
</svg>