<svg xmlns="http://www.w3.org/2000/svg" xmlns:xlink="http://www.w3.org/1999/xlink" class="svg-icon icon-archive" width="24" height="24" viewBox="0 0 24 24" fill="currentColor">
    <path d="M 21 4.4297 h -18 q -0.6328 0 -1.0664 0.4336 t -0.4336 1.0664 v 2.25 q 0 0.6328 0.4336 1.0664 t 1.0664 0.4336 v 8.25 q 0 0.6328 0.4336 1.0664 t 1.0664 0.4336 h 15 q 0.6328 0 1.0664 -0.4336 t 0.4336 -1.0664 v -8.25 q 0.6328 0 1.0664 -0.4336 t 0.4336 -1.0664 v -2.25 q 0 -0.6328 -0.4336 -1.0664 t -1.0664 -0.4336 z m -1.5 13.5 h -15 v -8.25 h 15 v 8.25 z m 1.5 -9.75 h -18 v -2.25 h 18 v 2.25 z m -12 4.5 q 0 -0.3047 0.2227 -0.5273 t 0.5273 -0.2227 h 4.5 q 0.3047 0 0.5273 0.2227 t 0.2227 0.5273 t -0.2227 0.5273 t -0.5273 0.2227 h -4.5 q -0.3047 0 -0.5273 -0.2227 t -0.2227 -0.5273 z" />
</svg>