<svg xmlns="http://www.w3.org/2000/svg" xmlns:xlink="http://www.w3.org/1999/xlink" class="svg-icon icon-armchair" width="24" height="24" viewBox="0 0 24 24" fill="currentColor">
    <path d="M 20.25 8.6953 v -1.5703 q 0 -1.5469 -1.1016 -2.6484 t -2.6484 -1.1016 h -9 q -1.5469 0 -2.6484 1.1016 t -1.1016 2.6484 v 1.5703 q -1.2891 0.2813 -2.1445 1.3008 t -0.8555 2.3789 t 0.8555 2.3789 t 2.1211 1.3008 h 0.0234 v 3.0703 q 0 0.6328 0.4336 1.0664 t 1.0664 0.4336 h 13.5 q 0.6328 0 1.0664 -0.4336 t 0.4336 -1.0664 v -3.0703 q 1.2891 -0.2813 2.1445 -1.3008 t 0.8555 -2.3789 t -0.8555 -2.3789 t -2.1211 -1.3008 h -0.0234 z m -12.75 -3.8203 h 9 q 0.9375 0 1.5938 0.6563 t 0.6563 1.5938 v 1.5703 q -1.2891 0.2813 -2.1445 1.3008 t -0.8555 2.3789 h -7.5 q 0 -1.3594 -0.8555 -2.3789 t -2.1211 -1.3008 h -0.0234 v -1.5703 q 0 -0.9375 0.6563 -1.5938 t 1.5938 -0.6563 z m 12.0469 9.75 h -0.0469 q -0.3047 0 -0.5273 0.2227 t -0.2227 0.5273 v 3.75 h -13.5 v -3.75 q 0 -0.3047 -0.2227 -0.5273 t -0.5273 -0.2227 h -0.0469 q -0.9141 -0.0234 -1.5586 -0.6797 t -0.6445 -1.5703 q 0 -0.9375 0.6563 -1.5938 t 1.5938 -0.6563 t 1.5938 0.6563 t 0.6563 1.5938 v 3.75 q 0 0.3047 0.2227 0.5273 t 0.5273 0.2227 t 0.5273 -0.2227 t 0.2227 -0.5273 v -2.25 h 7.5 v 2.25 q 0 0.3047 0.2227 0.5273 t 0.5273 0.2227 t 0.5273 -0.2227 t 0.2227 -0.5273 v -3.75 q 0 -0.9375 0.6563 -1.5938 t 1.5938 -0.6563 t 1.5938 0.6563 t 0.6563 1.5938 q 0 0.9141 -0.6445 1.5703 t -1.5586 0.6797 z" />
</svg>