<svg xmlns="http://www.w3.org/2000/svg" xmlns:xlink="http://www.w3.org/1999/xlink" class="svg-icon icon-arrow-arc-right" width="24" height="24" viewBox="0 0 24 24" fill="currentColor">
    <path d="M 22.125 7.5 v 6 q 0 0.3047 -0.2227 0.5273 t -0.5273 0.2227 h -6 q -0.3047 0 -0.5273 -0.2227 t -0.2227 -0.5273 t 0.2227 -0.5273 t 0.5273 -0.2227 h 4.1719 l -2.0859 -2.0859 q -1.125 -1.125 -2.625 -1.7695 t -3.2109 -0.6445 t -3.2109 0.6563 q -1.5 0.6328 -2.625 1.7578 t -1.7578 2.625 q -0.6563 1.5 -0.6563 3.2109 q 0 0.3047 -0.2227 0.5273 t -0.5273 0.2227 t -0.5273 -0.2227 t -0.2227 -0.5273 q 0 -2.0156 0.7734 -3.7969 q 0.75 -1.7813 2.0742 -3.1055 t 3.1055 -2.0742 q 1.7813 -0.7734 3.7969 -0.7734 q 1.0078 0 1.9688 0.1875 q 0.9609 0.2109 1.8281 0.5742 t 1.6641 0.9023 q 0.7734 0.5391 1.4297 1.1953 l 2.1094 2.0859 v -4.1953 q 0 -0.3047 0.2227 -0.5273 t 0.5273 -0.2227 t 0.5273 0.2227 t 0.2227 0.5273 z" />
</svg>