<svg xmlns="http://www.w3.org/2000/svg" xmlns:xlink="http://www.w3.org/1999/xlink" class="svg-icon icon-arrow-counter-clockwise" width="24" height="24" viewBox="0 0 24 24" fill="currentColor">
    <path d="M 21 12 q 0 1.8516 -0.7031 3.4688 q -0.6797 1.6406 -1.8867 2.8594 t -2.8242 1.9219 q -1.6172 0.7266 -3.4688 0.75 h -0.1172 h -0.0117 h -0.0117 q -1.7813 0 -3.3633 -0.6563 t -2.8008 -1.8047 q -0.0938 -0.0938 -0.1641 -0.2344 t -0.0703 -0.3047 q 0 -0.3047 0.2227 -0.5273 t 0.5273 -0.2227 q 0.1641 0 0.293 0.0586 t 0.2227 0.1523 q 1.0078 0.9375 2.332 1.4883 t 2.8242 0.5508 q 1.5469 0 2.9297 -0.5859 q 1.3594 -0.5859 2.3789 -1.6055 t 1.6055 -2.4023 q 0.5859 -1.3594 0.5859 -2.9063 t -0.5859 -2.9297 q -0.5859 -1.3594 -1.6055 -2.3789 t -2.3789 -1.6055 q -1.3828 -0.5859 -2.9297 -0.5859 t -2.918 0.5859 t -2.3789 1.6172 h -0.0234 v 0.0234 l -2.5078 2.2734 h 2.5781 q 0.3047 0 0.5273 0.2227 t 0.2227 0.5273 t -0.2227 0.5273 t -0.5273 0.2227 h -4.5 q -0.3047 0 -0.5273 -0.2227 t -0.2227 -0.5273 v -4.5 q 0 -0.3047 0.2227 -0.5273 t 0.5273 -0.2227 t 0.5273 0.2227 t 0.2227 0.5273 v 2.7891 l 2.6484 -2.4141 q 1.2188 -1.2188 2.8594 -1.9219 t 3.4922 -0.7031 q 1.875 0 3.4922 0.7031 q 1.6406 0.7031 2.8711 1.9336 t 1.9336 2.8711 q 0.7031 1.6172 0.7031 3.4922 z" />
</svg>