<svg xmlns="http://www.w3.org/2000/svg" xmlns:xlink="http://www.w3.org/1999/xlink" class="arrow-circle-up" width="24" height="24" viewBox="0 0 24 24" fill="currentColor">
    <path d="M 12 2.25 q -2.0156 0 -3.7969 0.7734 q -1.7813 0.75 -3.1055 2.0742 t -2.0742 3.1055 q -0.7734 1.7813 -0.7734 3.7969 t 0.7734 3.7969 q 0.75 1.7813 2.0742 3.1055 t 3.1055 2.0742 q 1.7813 0.7734 3.7969 0.7734 t 3.7969 -0.7734 q 1.7813 -0.75 3.1055 -2.0742 t 2.0742 -3.1055 q 0.7734 -1.7813 0.7734 -3.7969 t -0.7734 -3.7969 t -2.0859 -3.0938 t -3.0938 -2.0859 t -3.7969 -0.7734 z m 0 18 q -1.7109 0 -3.2109 -0.6563 q -1.5 -0.6328 -2.625 -1.7578 t -1.7578 -2.625 q -0.6563 -1.5 -0.6563 -3.2109 t 0.6563 -3.2109 q 0.6328 -1.5 1.7578 -2.625 t 2.625 -1.7578 q 1.5 -0.6563 3.2109 -0.6563 t 3.2109 0.6563 q 1.5 0.6328 2.625 1.7578 t 1.7578 2.625 q 0.6563 1.5 0.6563 3.2109 t -0.6563 3.2109 q -0.6328 1.5 -1.7578 2.625 t -2.625 1.7578 q -1.5 0.6563 -3.2109 0.6563 z m 3.5391 -9.5391 q 0.0938 0.1172 0.1523 0.2461 t 0.0586 0.293 q 0 0.3047 -0.2227 0.5273 t -0.5273 0.2227 q -0.1641 0 -0.293 -0.0586 t -0.2461 -0.1523 l -1.7109 -1.7344 v 5.6953 q 0 0.3047 -0.2227 0.5273 t -0.5273 0.2227 t -0.5273 -0.2227 t -0.2227 -0.5273 v -5.6953 l -1.7109 1.7344 q -0.1172 0.0938 -0.2461 0.1523 t -0.293 0.0586 q -0.3047 0 -0.5273 -0.2227 t -0.2227 -0.5273 q 0 -0.1641 0.0586 -0.293 t 0.1523 -0.2461 l 3 -3 q 0.1172 -0.0938 0.2461 -0.1523 t 0.293 -0.0586 t 0.293 0.0586 t 0.2461 0.1523 z" />
</svg>