<svg xmlns="http://www.w3.org/2000/svg" xmlns:xlink="http://www.w3.org/1999/xlink" class="svg-icon icon-arrow-clockwise" width="24" height="24" viewBox="0 0 24 24" fill="currentColor">
    <path d="M 22.5 5.25 v 4.5 q 0 0.3047 -0.2227 0.5273 t -0.5273 0.2227 h -4.5 q -0.3047 0 -0.5273 -0.2227 t -0.2227 -0.5273 t 0.2227 -0.5273 t 0.5273 -0.2227 h 2.5781 l -2.5313 -2.2969 q -1.0078 -1.0313 -2.3789 -1.6172 t -2.918 -0.5859 t -2.9297 0.5859 q -1.3594 0.5859 -2.3789 1.6055 t -1.6055 2.3789 q -0.5859 1.3828 -0.5859 2.9297 t 0.5859 2.9063 q 0.5859 1.3828 1.6055 2.4023 t 2.3789 1.6055 q 1.3828 0.5859 2.9297 0.5859 q 1.5 0 2.8242 -0.5508 t 2.332 -1.4883 q 0.0938 -0.0938 0.2227 -0.1523 t 0.293 -0.0586 q 0.3047 0 0.5273 0.2227 t 0.2227 0.5273 q 0 0.1641 -0.0703 0.3047 t -0.1641 0.2344 q -1.2188 1.1484 -2.8008 1.8047 t -3.3633 0.6563 h -0.0117 h -0.0117 h -0.1172 q -1.8516 -0.0234 -3.4688 -0.75 q -1.6172 -0.7031 -2.8242 -1.9219 t -1.8867 -2.8594 q -0.7031 -1.6172 -0.7031 -3.4688 t 0.7031 -3.4922 t 1.9336 -2.8711 t 2.8711 -1.9336 q 1.6172 -0.7031 3.4922 -0.7031 q 1.8516 0 3.4922 0.7031 t 2.8594 1.9219 l 2.6484 2.4141 v -2.7891 q 0 -0.3047 0.2227 -0.5273 t 0.5273 -0.2227 t 0.5273 0.2227 t 0.2227 0.5273 z" />
</svg>