<svg xmlns="http://www.w3.org/2000/svg" xmlns:xlink="http://www.w3.org/1999/xlink" class="svg-icon icon-arrow-bend-double-up-left" width="24" height="24" viewBox="0 0 24 24" fill="currentColor">
    <path d="M 8.0391 13.7109 q 0.0938 0.1172 0.1523 0.2461 t 0.0586 0.293 q 0 0.3047 -0.2227 0.5273 t -0.5273 0.2227 q -0.1641 0 -0.293 -0.0586 t -0.2461 -0.1523 l -4.5 -4.5 q -0.0938 -0.1172 -0.1523 -0.2461 t -0.0586 -0.293 t 0.0586 -0.293 t 0.1523 -0.2461 l 4.5 -4.5 q 0.1172 -0.0938 0.2461 -0.1523 t 0.293 -0.0586 q 0.3047 0 0.5273 0.2227 t 0.2227 0.5273 q 0 0.1641 -0.0586 0.293 t -0.1523 0.2461 l -3.9844 3.9609 z m 3.9609 -4.7109 h -2.6953 l 3.2344 -3.2109 q 0.0938 -0.1172 0.1523 -0.2461 t 0.0586 -0.293 q 0 -0.3047 -0.2227 -0.5273 t -0.5273 -0.2227 q -0.1641 0 -0.293 0.0586 t -0.2461 0.1523 l -4.5 4.5 q -0.0938 0.1172 -0.1523 0.2461 t -0.0586 0.293 t 0.0586 0.293 t 0.1523 0.2461 l 4.5 4.5 q 0.1172 0.0938 0.2461 0.1523 t 0.293 0.0586 q 0.3047 0 0.5273 -0.2227 t 0.2227 -0.5273 q 0 -0.1641 -0.0586 -0.293 t -0.1523 -0.2461 l -3.2344 -3.2109 h 2.6953 q 1.7109 0 3.2109 0.6563 q 1.5 0.6328 2.625 1.7578 t 1.7578 2.625 q 0.6563 1.5 0.6563 3.2109 q 0 0.3047 0.2227 0.5273 t 0.5273 0.2227 t 0.5273 -0.2227 t 0.2227 -0.5273 q 0 -2.0156 -0.7734 -3.7969 t -2.0859 -3.0938 t -3.0938 -2.0859 t -3.7969 -0.7734 z" />
</svg>