<svg xmlns="http://www.w3.org/2000/svg" xmlns:xlink="http://www.w3.org/1999/xlink" class="svg-icon icon-box-arrow-down" width="24" height="24" viewBox="0 0 24 24" fill="currentColor">
    <path d="M 20.9297 6.4219 l -1.5 -3 q -0.0938 -0.1875 -0.2813 -0.3047 t -0.3984 -0.1172 h -13.5 q -0.2109 0 -0.3984 0.1172 t -0.2813 0.2813 v 0.0234 l -1.5 3 q -0.0234 0.0703 -0.0469 0.1523 t -0.0234 0.1758 v 12.75 q 0 0.6328 0.4336 1.0664 t 1.0664 0.4336 h 15 q 0.6328 0 1.0664 -0.4336 t 0.4336 -1.0664 v -12.75 q 0 -0.0938 -0.0234 -0.1758 t -0.0469 -0.1758 v 0.0234 z m -15.2109 -1.9219 h 12.5625 l 0.75 1.5 h -14.0625 z m 13.7813 15 h -15 v -12 h 15 v 12 z m -3.9609 -5.7891 q 0.0938 0.1172 0.1523 0.2461 t 0.0586 0.293 t -0.0586 0.293 t -0.1523 0.2461 l -3 3 q -0.1172 0.0938 -0.2461 0.1523 t -0.293 0.0586 t -0.293 -0.0586 t -0.2461 -0.1523 l -3 -3 q -0.0938 -0.1172 -0.1523 -0.2461 t -0.0586 -0.293 q 0 -0.3047 0.2227 -0.5273 t 0.5273 -0.2227 q 0.1641 0 0.293 0.0586 t 0.2461 0.1523 l 1.7109 1.7344 v -5.6953 q 0 -0.3047 0.2227 -0.5273 t 0.5273 -0.2227 t 0.5273 0.2227 t 0.2227 0.5273 v 5.6953 l 1.7109 -1.7344 q 0.1172 -0.0938 0.2461 -0.1523 t 0.293 -0.0586 t 0.293 0.0586 t 0.2461 0.1523 z" />
</svg>