<svg xmlns="http://www.w3.org/2000/svg" xmlns:xlink="http://www.w3.org/1999/xlink" class="svg-icon icon-pulse" width="24" height="24" viewBox="0 0 24 24" fill="currentColor">
    <path d="M 22.5 12.375 q 0 -0.3047 -0.2227 -0.5273 t -0.5273 -0.2227 h -3 q -0.2109 0 -0.3984 0.1172 t -0.2813 0.3047 l -2.9766 5.9766 l -5.3906 -14.1563 v -0.0234 q -0.0938 -0.2109 -0.2813 -0.3398 t -0.4219 -0.1289 t -0.4102 0.1172 t -0.2695 0.3281 l -3.5625 7.8047 h -2.5078 q -0.3047 0 -0.5273 0.2227 t -0.2227 0.5273 t 0.2227 0.5273 t 0.5273 0.2227 h 3 q 0.2344 0 0.4102 -0.1172 t 0.2695 -0.3281 l 3 -6.6094 l 5.3672 14.0625 v 0.0234 q 0.0938 0.1875 0.2695 0.3281 t 0.3867 0.1406 h 0.0469 q 0.2109 0 0.3984 -0.1172 t 0.2813 -0.3047 l 3.5391 -7.0781 h 2.5313 q 0.3047 0 0.5273 -0.2227 t 0.2227 -0.5273 z" />
</svg>