<svg xmlns="http://www.w3.org/2000/svg" xmlns:xlink="http://www.w3.org/1999/xlink" class="svg-icon icon-tray-arrow-down" width="24" height="24" viewBox="0 0 24 24" fill="currentColor">
    <path d="M 19.5 3 h -15 q -0.6328 0 -1.0664 0.4336 t -0.4336 1.0664 v 15 q 0 0.6328 0.4336 1.0664 t 1.0664 0.4336 h 15 q 0.6328 0 1.0664 -0.4336 t 0.4336 -1.0664 v -15 q 0 -0.6328 -0.4336 -1.0664 t -1.0664 -0.4336 z m 0 1.5 v 9.75 h -2.6953 q -0.3047 0 -0.5742 0.1172 t -0.4805 0.3281 l -1.8047 1.8047 h -3.8906 l -1.8047 -1.8047 q -0.2109 -0.2109 -0.4805 -0.3281 t -0.5742 -0.1172 h -2.6953 v -9.75 h 15 z m 0 15 h -15 v -3.75 h 2.6953 l 1.8047 1.8047 q 0.2109 0.2109 0.4805 0.3281 t 0.5742 0.1172 h 3.8906 q 0.3047 0 0.5742 -0.1172 t 0.4805 -0.3281 l 1.8047 -1.8047 h 2.6953 v 3.75 z m -11.0391 -7.7109 q -0.0938 -0.1172 -0.1523 -0.2461 t -0.0586 -0.293 q 0 -0.3047 0.2227 -0.5273 t 0.5273 -0.2227 q 0.1641 0 0.293 0.0586 t 0.2461 0.1523 l 1.7109 1.7344 v -5.6953 q 0 -0.3047 0.2227 -0.5273 t 0.5273 -0.2227 t 0.5273 0.2227 t 0.2227 0.5273 v 5.6953 l 1.7109 -1.7344 q 0.1172 -0.0938 0.2461 -0.1523 t 0.293 -0.0586 q 0.3047 0 0.5273 0.2227 t 0.2227 0.5273 q 0 0.1641 -0.0586 0.293 t -0.1523 0.2461 l -3 3 q -0.1172 0.0938 -0.2461 0.1523 t -0.293 0.0586 t -0.293 -0.0586 t -0.2461 -0.1523 z" />
</svg>